<mxfile host="app.diagrams.net" modified="2023-10-16T18:11:09.930Z" agent="Mozilla/5.0 (Windows NT 10.0; Win64; x64) AppleWebKit/537.36 (KHTML, like Gecko) Chrome/118.0.0.0 Safari/537.36" etag="i6CInam_iCax_bvFKU_K" version="21.2.3" type="device">
  <diagram name="Page-1" id="THtZ-wueox46_s1v_odL">
    <mxGraphModel dx="1185" dy="657" grid="1" gridSize="10" guides="1" tooltips="1" connect="1" arrows="1" fold="1" page="1" pageScale="1" pageWidth="850" pageHeight="1100" math="0" shadow="0">
      <root>
        <mxCell id="0" />
        <mxCell id="1" parent="0" />
        <mxCell id="8bo6Pm36zZ374udtGrMA-2" value="1 v 2" style="rounded=0;whiteSpace=wrap;html=1;" parent="1" vertex="1">
          <mxGeometry x="360" y="270" width="120" height="60" as="geometry" />
        </mxCell>
        <mxCell id="8bo6Pm36zZ374udtGrMA-3" value="1 v 3" style="rounded=0;whiteSpace=wrap;html=1;" parent="1" vertex="1">
          <mxGeometry x="160" y="400" width="120" height="60" as="geometry" />
        </mxCell>
        <mxCell id="8bo6Pm36zZ374udtGrMA-4" value="2 v 4" style="rounded=0;whiteSpace=wrap;html=1;" parent="1" vertex="1">
          <mxGeometry x="560" y="400" width="120" height="60" as="geometry" />
        </mxCell>
        <mxCell id="8bo6Pm36zZ374udtGrMA-5" value="1 v 5" style="rounded=0;whiteSpace=wrap;html=1;" parent="1" vertex="1">
          <mxGeometry x="40" y="520" width="120" height="60" as="geometry" />
        </mxCell>
        <mxCell id="8bo6Pm36zZ374udtGrMA-6" value="3 v 6" style="rounded=0;whiteSpace=wrap;html=1;" parent="1" vertex="1">
          <mxGeometry x="280" y="520" width="120" height="60" as="geometry" />
        </mxCell>
        <mxCell id="8bo6Pm36zZ374udtGrMA-7" value="2 v 7" style="rounded=0;whiteSpace=wrap;html=1;" parent="1" vertex="1">
          <mxGeometry x="440" y="520" width="120" height="60" as="geometry" />
        </mxCell>
        <mxCell id="8bo6Pm36zZ374udtGrMA-8" value="4 v 8" style="rounded=0;whiteSpace=wrap;html=1;" parent="1" vertex="1">
          <mxGeometry x="680" y="520" width="120" height="60" as="geometry" />
        </mxCell>
        <mxCell id="8bo6Pm36zZ374udtGrMA-9" value="" style="endArrow=none;html=1;rounded=0;" parent="1" source="8bo6Pm36zZ374udtGrMA-3" target="8bo6Pm36zZ374udtGrMA-2" edge="1">
          <mxGeometry width="50" height="50" relative="1" as="geometry">
            <mxPoint x="400" y="610" as="sourcePoint" />
            <mxPoint x="450" y="560" as="targetPoint" />
          </mxGeometry>
        </mxCell>
        <mxCell id="8bo6Pm36zZ374udtGrMA-25" value="If 1 v 2 already matched before" style="edgeLabel;html=1;align=center;verticalAlign=middle;resizable=0;points=[];" parent="8bo6Pm36zZ374udtGrMA-9" vertex="1" connectable="0">
          <mxGeometry x="0.3283" y="-1" relative="1" as="geometry">
            <mxPoint y="-1" as="offset" />
          </mxGeometry>
        </mxCell>
        <mxCell id="8bo6Pm36zZ374udtGrMA-10" value="" style="endArrow=none;html=1;rounded=0;" parent="1" source="8bo6Pm36zZ374udtGrMA-2" target="8bo6Pm36zZ374udtGrMA-4" edge="1">
          <mxGeometry width="50" height="50" relative="1" as="geometry">
            <mxPoint x="550" y="340" as="sourcePoint" />
            <mxPoint x="600" y="290" as="targetPoint" />
          </mxGeometry>
        </mxCell>
        <mxCell id="8bo6Pm36zZ374udtGrMA-11" value="" style="endArrow=none;html=1;rounded=0;" parent="1" source="8bo6Pm36zZ374udtGrMA-5" target="8bo6Pm36zZ374udtGrMA-3" edge="1">
          <mxGeometry width="50" height="50" relative="1" as="geometry">
            <mxPoint x="323" y="440" as="sourcePoint" />
            <mxPoint x="398" y="340" as="targetPoint" />
          </mxGeometry>
        </mxCell>
        <mxCell id="8bo6Pm36zZ374udtGrMA-26" value="If 1 v 3 matched before. Keep repeating until successfully matched" style="edgeLabel;html=1;align=center;verticalAlign=middle;resizable=0;points=[];" parent="8bo6Pm36zZ374udtGrMA-11" vertex="1" connectable="0">
          <mxGeometry x="0.3833" y="-4" relative="1" as="geometry">
            <mxPoint x="-1" as="offset" />
          </mxGeometry>
        </mxCell>
        <mxCell id="8bo6Pm36zZ374udtGrMA-12" value="" style="endArrow=none;html=1;rounded=0;" parent="1" source="8bo6Pm36zZ374udtGrMA-6" target="8bo6Pm36zZ374udtGrMA-3" edge="1">
          <mxGeometry width="50" height="50" relative="1" as="geometry">
            <mxPoint x="188" y="560" as="sourcePoint" />
            <mxPoint x="263" y="500" as="targetPoint" />
          </mxGeometry>
        </mxCell>
        <mxCell id="8bo6Pm36zZ374udtGrMA-13" value="" style="endArrow=none;html=1;rounded=0;" parent="1" source="8bo6Pm36zZ374udtGrMA-7" target="8bo6Pm36zZ374udtGrMA-4" edge="1">
          <mxGeometry width="50" height="50" relative="1" as="geometry">
            <mxPoint x="338" y="560" as="sourcePoint" />
            <mxPoint x="313" y="500" as="targetPoint" />
          </mxGeometry>
        </mxCell>
        <mxCell id="8bo6Pm36zZ374udtGrMA-24" value="Repeat until a match is possible" style="edgeLabel;html=1;align=center;verticalAlign=middle;resizable=0;points=[];" parent="8bo6Pm36zZ374udtGrMA-13" vertex="1" connectable="0">
          <mxGeometry x="-0.45" y="1" relative="1" as="geometry">
            <mxPoint as="offset" />
          </mxGeometry>
        </mxCell>
        <mxCell id="8bo6Pm36zZ374udtGrMA-14" value="" style="endArrow=none;html=1;rounded=0;" parent="1" source="8bo6Pm36zZ374udtGrMA-8" target="8bo6Pm36zZ374udtGrMA-4" edge="1">
          <mxGeometry width="50" height="50" relative="1" as="geometry">
            <mxPoint x="548" y="560" as="sourcePoint" />
            <mxPoint x="543" y="500" as="targetPoint" />
          </mxGeometry>
        </mxCell>
        <mxCell id="8bo6Pm36zZ374udtGrMA-15" value="3 v 9" style="rounded=0;whiteSpace=wrap;html=1;" parent="1" vertex="1">
          <mxGeometry x="160" y="710" width="120" height="60" as="geometry" />
        </mxCell>
        <mxCell id="8bo6Pm36zZ374udtGrMA-16" value="4 v 11" style="rounded=0;whiteSpace=wrap;html=1;" parent="1" vertex="1">
          <mxGeometry x="555" y="710" width="120" height="60" as="geometry" />
        </mxCell>
        <mxCell id="8bo6Pm36zZ374udtGrMA-18" value="6 v 10" style="rounded=0;whiteSpace=wrap;html=1;" parent="1" vertex="1">
          <mxGeometry x="400" y="710" width="120" height="60" as="geometry" />
        </mxCell>
        <mxCell id="8bo6Pm36zZ374udtGrMA-20" value="" style="endArrow=none;html=1;rounded=0;" parent="1" source="8bo6Pm36zZ374udtGrMA-6" target="8bo6Pm36zZ374udtGrMA-18" edge="1">
          <mxGeometry width="50" height="50" relative="1" as="geometry">
            <mxPoint x="324" y="810" as="sourcePoint" />
            <mxPoint x="256" y="890" as="targetPoint" />
          </mxGeometry>
        </mxCell>
        <mxCell id="8bo6Pm36zZ374udtGrMA-27" value="If 3 v 6 cannot match because previously fought, continue splitting, continuing on from the tree&#39;s last node.&lt;br&gt;&lt;br&gt;e.g. If node 3 v 6 is not possible, and the last node is 4 v 8, then the children of 3 v 6 will be 3 v 9 and 6 v 10" style="text;html=1;strokeColor=none;fillColor=none;align=center;verticalAlign=middle;whiteSpace=wrap;rounded=0;" parent="1" vertex="1">
          <mxGeometry x="210" y="790" width="235" height="90" as="geometry" />
        </mxCell>
        <mxCell id="8bo6Pm36zZ374udtGrMA-29" value="8 v 12" style="rounded=0;whiteSpace=wrap;html=1;" parent="1" vertex="1">
          <mxGeometry x="800" y="710" width="120" height="60" as="geometry" />
        </mxCell>
        <mxCell id="8bo6Pm36zZ374udtGrMA-31" value="" style="endArrow=none;html=1;rounded=0;" parent="1" source="8bo6Pm36zZ374udtGrMA-8" target="8bo6Pm36zZ374udtGrMA-29" edge="1">
          <mxGeometry width="50" height="50" relative="1" as="geometry">
            <mxPoint x="400" y="940" as="sourcePoint" />
            <mxPoint x="450" y="890" as="targetPoint" />
          </mxGeometry>
        </mxCell>
        <mxCell id="8bo6Pm36zZ374udtGrMA-32" value="4 v 8 cannot match, and last node is 6 v 10. Therefore the children of 4 v 8 are 4 v 11, and 8 v 12" style="text;html=1;strokeColor=none;fillColor=none;align=center;verticalAlign=middle;whiteSpace=wrap;rounded=0;" parent="1" vertex="1">
          <mxGeometry x="622.5" y="770" width="235" height="110" as="geometry" />
        </mxCell>
        <mxCell id="permf_p1R2MstD0Y_7Pc-2" value="Assume 2v7 is a valid match here, and 4 v 8 invalid" style="text;html=1;strokeColor=none;fillColor=none;align=center;verticalAlign=middle;whiteSpace=wrap;rounded=0;" vertex="1" parent="1">
          <mxGeometry x="540" y="570" width="160" height="80" as="geometry" />
        </mxCell>
        <mxCell id="permf_p1R2MstD0Y_7Pc-3" value="" style="endArrow=none;html=1;rounded=0;" edge="1" parent="1" source="8bo6Pm36zZ374udtGrMA-8" target="8bo6Pm36zZ374udtGrMA-16">
          <mxGeometry width="50" height="50" relative="1" as="geometry">
            <mxPoint x="430" y="800" as="sourcePoint" />
            <mxPoint x="480" y="750" as="targetPoint" />
          </mxGeometry>
        </mxCell>
        <mxCell id="permf_p1R2MstD0Y_7Pc-4" value="" style="endArrow=none;html=1;rounded=0;" edge="1" parent="1" source="8bo6Pm36zZ374udtGrMA-6" target="8bo6Pm36zZ374udtGrMA-15">
          <mxGeometry width="50" height="50" relative="1" as="geometry">
            <mxPoint x="369" y="590" as="sourcePoint" />
            <mxPoint x="451" y="720" as="targetPoint" />
          </mxGeometry>
        </mxCell>
        <mxCell id="permf_p1R2MstD0Y_7Pc-5" value="Assume 1 v 5 is a valid match here, and 3 v 6 invalid" style="text;html=1;strokeColor=none;fillColor=none;align=center;verticalAlign=middle;whiteSpace=wrap;rounded=0;" vertex="1" parent="1">
          <mxGeometry x="120" y="580" width="160" height="80" as="geometry" />
        </mxCell>
      </root>
    </mxGraphModel>
  </diagram>
</mxfile>
